<svg width="31" height="50" viewBox="0 0 31 50" fill="none" xmlns="http://www.w3.org/2000/svg">
<path d="M4.74994 2.99995C4.65056 2.99855 4.55188 3.01691 4.45966 3.05397C4.36743 3.09103 4.28349 3.14605 4.21271 3.21583C4.14194 3.28562 4.08573 3.36877 4.04737 3.46046C4.00901 3.55216 3.98926 3.65056 3.98926 3.74995C3.98926 3.84935 4.00901 3.94775 4.04737 4.03944C4.08573 4.13113 4.14194 4.21429 4.21271 4.28407C4.28349 4.35386 4.36743 4.40888 4.45966 4.44594C4.55188 4.483 4.65056 4.50136 4.74994 4.49995H6.15033C6.49319 4.49995 6.78667 4.73649 6.86615 5.10737L6.86322 5.08784L7.01166 5.88277L7.01263 5.88862V5.8896L8.61029 14.3232C8.87083 15.8864 10.2456 17 11.7997 17H21.2001C22.7543 17 24.0667 15.8742 24.3837 14.3525C24.3847 14.3483 24.3857 14.344 24.3867 14.3398L25.9872 5.8896C26.0078 5.78117 26.0041 5.66955 25.9766 5.56269C25.949 5.45583 25.8982 5.35637 25.8278 5.2714C25.7574 5.18643 25.6691 5.11805 25.5692 5.07113C25.4693 5.02421 25.3603 4.9999 25.2499 4.99995H8.37201L8.33685 4.81148C8.33563 4.80528 8.33433 4.79909 8.33295 4.79292C8.11242 3.76381 7.20747 2.99995 6.15033 2.99995H4.74994ZM8.65521 6.49995H24.3447L22.916 14.0468L22.915 14.0478C22.7316 14.9253 22.0455 15.5 21.2001 15.5H11.7997C10.9539 15.5 10.2292 14.9139 10.0898 14.0771C10.0889 14.0716 10.0879 14.066 10.0869 14.0605L8.65521 6.49995ZM12.9999 18C12.6021 18 12.2206 18.158 11.9393 18.4393C11.658 18.7206 11.4999 19.1021 11.4999 19.5C11.4999 19.8978 11.658 20.2793 11.9393 20.5606C12.2206 20.8419 12.6021 21 12.9999 21C13.3978 21 13.7793 20.8419 14.0606 20.5606C14.3419 20.2793 14.4999 19.8978 14.4999 19.5C14.4999 19.1021 14.3419 18.7206 14.0606 18.4393C13.7793 18.158 13.3978 18 12.9999 18ZM19.9999 18C19.6021 18 19.2206 18.158 18.9393 18.4393C18.658 18.7206 18.4999 19.1021 18.4999 19.5C18.4999 19.8978 18.658 20.2793 18.9393 20.5606C19.2206 20.8419 19.6021 21 19.9999 21C20.3978 21 20.7793 20.8419 21.0606 20.5606C21.3419 20.2793 21.4999 19.8978 21.4999 19.5C21.4999 19.1021 21.3419 18.7206 21.0606 18.4393C20.7793 18.158 20.3978 18 19.9999 18Z" fill="#777778"/>
<path d="M0.602 39.114C0.602 38.162 0.816667 37.308 1.246 36.552C1.67533 35.7867 2.25867 35.1893 2.996 34.76C3.74267 34.3307 4.56867 34.116 5.474 34.116C6.538 34.116 7.46667 34.3727 8.26 34.886C9.05333 35.3993 9.632 36.1273 9.996 37.07H8.47C8.19933 36.482 7.80733 36.0293 7.294 35.712C6.79 35.3947 6.18333 35.236 5.474 35.236C4.79267 35.236 4.18133 35.3947 3.64 35.712C3.09867 36.0293 2.674 36.482 2.366 37.07C2.058 37.6487 1.904 38.33 1.904 39.114C1.904 39.8887 2.058 40.57 2.366 41.158C2.674 41.7367 3.09867 42.1847 3.64 42.502C4.18133 42.8193 4.79267 42.978 5.474 42.978C6.18333 42.978 6.79 42.824 7.294 42.516C7.80733 42.1987 8.19933 41.746 8.47 41.158H9.996C9.632 42.0913 9.05333 42.8147 8.26 43.328C7.46667 43.832 6.538 44.084 5.474 44.084C4.56867 44.084 3.74267 43.874 2.996 43.454C2.25867 43.0247 1.67533 42.432 1.246 41.676C0.816667 40.92 0.602 40.066 0.602 39.114ZM11.4165 40.136C11.4165 39.352 11.5751 38.666 11.8925 38.078C12.2098 37.4807 12.6438 37.0187 13.1945 36.692C13.7545 36.3653 14.3751 36.202 15.0565 36.202C15.7285 36.202 16.3118 36.3467 16.8065 36.636C17.3011 36.9253 17.6698 37.2893 17.9125 37.728V36.328H19.2005V44H17.9125V42.572C17.6605 43.02 17.2825 43.3933 16.7785 43.692C16.2838 43.9813 15.7051 44.126 15.0425 44.126C14.3611 44.126 13.7451 43.958 13.1945 43.622C12.6438 43.286 12.2098 42.8147 11.8925 42.208C11.5751 41.6013 11.4165 40.9107 11.4165 40.136ZM17.9125 40.15C17.9125 39.5713 17.7958 39.0673 17.5625 38.638C17.3291 38.2087 17.0118 37.882 16.6105 37.658C16.2185 37.4247 15.7845 37.308 15.3085 37.308C14.8325 37.308 14.3985 37.42 14.0065 37.644C13.6145 37.868 13.3018 38.1947 13.0685 38.624C12.8351 39.0533 12.7185 39.5573 12.7185 40.136C12.7185 40.724 12.8351 41.2373 13.0685 41.676C13.3018 42.1053 13.6145 42.4367 14.0065 42.67C14.3985 42.894 14.8325 43.006 15.3085 43.006C15.7845 43.006 16.2185 42.894 16.6105 42.67C17.0118 42.4367 17.3291 42.1053 17.5625 41.676C17.7958 41.2373 17.9125 40.7287 17.9125 40.15ZM22.6274 37.574C22.8514 37.1353 23.1687 36.7947 23.5794 36.552C23.9994 36.3093 24.5081 36.188 25.1054 36.188V37.504H24.7694C23.3414 37.504 22.6274 38.2787 22.6274 39.828V44H21.3534V36.328H22.6274V37.574ZM28.13 37.378V41.9C28.13 42.2733 28.2094 42.5393 28.368 42.698C28.5267 42.8473 28.802 42.922 29.194 42.922H30.132V44H28.984C28.2747 44 27.7427 43.8367 27.388 43.51C27.0334 43.1833 26.856 42.6467 26.856 41.9V37.378H25.862V36.328H26.856V34.396H28.13V36.328H30.132V37.378H28.13Z" fill="#777778"/>
</svg>
