<svg width="23" height="18" viewBox="0 0 23 18" fill="none" xmlns="http://www.w3.org/2000/svg">
<path d="M0.760682 7.50059e-05C0.661298 -0.00133053 0.562626 0.0170303 0.4704 0.0540906C0.378173 0.0911509 0.294233 0.146172 0.223455 0.215955C0.152678 0.285738 0.096476 0.368893 0.0581152 0.460585C0.0197545 0.552278 0 0.650681 0 0.750075C0 0.849469 0.0197545 0.947871 0.0581152 1.03956C0.096476 1.13126 0.152678 1.21441 0.223455 1.28419C0.294233 1.35398 0.378173 1.409 0.4704 1.44606C0.562626 1.48312 0.661298 1.50148 0.760682 1.50007H2.16107C2.50393 1.50007 2.79742 1.73661 2.87689 2.1075L2.87396 2.08797L3.0224 2.88289L3.02338 2.88875L4.62103 11.3233C4.88157 12.8865 6.25632 14.0001 7.81049 14.0001H17.2109C18.765 14.0001 20.0774 12.8743 20.3945 11.3526C20.3955 11.3484 20.3965 11.3442 20.3974 11.3399L21.998 2.88972C22.0185 2.78129 22.0149 2.66967 21.9873 2.56281C21.9597 2.45595 21.9089 2.35649 21.8385 2.27152C21.7681 2.18656 21.6798 2.11817 21.5799 2.07125C21.48 2.02433 21.371 2.00003 21.2607 2.00007H4.38275L4.3476 1.8116C4.34637 1.8054 4.34507 1.79921 4.34369 1.79304C4.12316 0.763929 3.21821 7.50059e-05 2.16107 7.50059e-05H0.760682ZM18.9267 12.5001L20.3554 3.50007L18.9267 11.0469L18.9257 11.0479C18.7423 11.9254 18.0562 12.5001 17.2109 12.5001H7.81049C6.96465 12.5001 7.13946 13.3368 7 12.5001C8.16303 13.8535 8.70996 13.9229 7 12.5001H18.9267ZM9.01068 15.0001C8.61286 15.0001 8.23133 15.1581 7.95002 15.4394C7.66872 15.7207 7.51068 16.1022 7.51068 16.5001C7.51068 16.8979 7.66872 17.2794 7.95002 17.5607C8.23133 17.842 8.61286 18.0001 9.01068 18.0001C9.40851 18.0001 9.79004 17.842 10.0713 17.5607C10.3526 17.2794 10.5107 16.8979 10.5107 16.5001C10.5107 16.1022 10.3526 15.7207 10.0713 15.4394C9.79004 15.1581 9.40851 15.0001 9.01068 15.0001ZM16.0107 15.0001C15.6129 15.0001 15.2313 15.1581 14.95 15.4394C14.6687 15.7207 14.5107 16.1022 14.5107 16.5001C14.5107 16.8979 14.6687 17.2794 14.95 17.5607C15.2313 17.842 15.6129 18.0001 16.0107 18.0001C16.4085 18.0001 16.79 17.842 17.0713 17.5607C17.3526 17.2794 17.5107 16.8979 17.5107 16.5001C17.5107 16.1022 17.3526 15.7207 17.0713 15.4394C16.79 15.1581 16.4085 15.0001 16.0107 15.0001Z" fill="#060017"/>
</svg>
