<svg width="24" height="24" viewBox="0 0 24 24" fill="none" xmlns="http://www.w3.org/2000/svg">
<path d="M1.74994 2.99995C1.65056 2.99855 1.55188 3.01691 1.45966 3.05397C1.36743 3.09103 1.28349 3.14605 1.21271 3.21583C1.14194 3.28562 1.08573 3.36877 1.04737 3.46046C1.00901 3.55216 0.989258 3.65056 0.989258 3.74995C0.989258 3.84935 1.00901 3.94775 1.04737 4.03944C1.08573 4.13113 1.14194 4.21429 1.21271 4.28407C1.28349 4.35386 1.36743 4.40888 1.45966 4.44594C1.55188 4.483 1.65056 4.50136 1.74994 4.49995H3.15033C3.49319 4.49995 3.78667 4.73649 3.86615 5.10737L3.86322 5.08784L4.01166 5.88277L4.01263 5.88862V5.8896L5.61029 14.3232C5.87083 15.8864 7.24558 17 8.79974 17H18.2001C19.7543 17 21.0667 15.8742 21.3837 14.3525C21.3847 14.3483 21.3857 14.344 21.3867 14.3398L22.9872 5.8896C23.0078 5.78117 23.0041 5.66955 22.9766 5.56269C22.949 5.45583 22.8982 5.35637 22.8278 5.2714C22.7574 5.18643 22.6691 5.11805 22.5692 5.07113C22.4693 5.02421 22.3603 4.9999 22.2499 4.99995H5.37201L5.33685 4.81148C5.33563 4.80528 5.33433 4.79909 5.33295 4.79292C5.11242 3.76381 4.20747 2.99995 3.15033 2.99995H1.74994ZM5.65521 6.49995H21.3447L19.916 14.0468L19.915 14.0478C19.7316 14.9253 19.0455 15.5 18.2001 15.5H8.79974C7.95391 15.5 7.22924 14.9139 7.08978 14.0771C7.08887 14.0716 7.08789 14.066 7.08685 14.0605L5.65521 6.49995ZM9.99994 18C9.60211 18 9.22058 18.158 8.93928 18.4393C8.65797 18.7206 8.49994 19.1021 8.49994 19.5C8.49994 19.8978 8.65797 20.2793 8.93928 20.5606C9.22058 20.8419 9.60211 21 9.99994 21C10.3978 21 10.7793 20.8419 11.0606 20.5606C11.3419 20.2793 11.4999 19.8978 11.4999 19.5C11.4999 19.1021 11.3419 18.7206 11.0606 18.4393C10.7793 18.158 10.3978 18 9.99994 18ZM16.9999 18C16.6021 18 16.2206 18.158 15.9393 18.4393C15.658 18.7206 15.4999 19.1021 15.4999 19.5C15.4999 19.8978 15.658 20.2793 15.9393 20.5606C16.2206 20.8419 16.6021 21 16.9999 21C17.3978 21 17.7793 20.8419 18.0606 20.5606C18.3419 20.2793 18.4999 19.8978 18.4999 19.5C18.4999 19.1021 18.3419 18.7206 18.0606 18.4393C17.7793 18.158 17.3978 18 16.9999 18Z" fill="#777778"/>
</svg>
