<svg width="24" height="24" viewBox="0 0 24 24" fill="none" xmlns="http://www.w3.org/2000/svg">
<path d="M11.1465 7.63379L11.998 9.04102L12.8516 7.63574V7.63672C12.8552 7.63119 12.8634 7.61925 12.876 7.60156C12.9018 7.56514 12.9462 7.50473 13.0098 7.42969C13.1374 7.27902 13.3393 7.0704 13.6191 6.85938C14.1712 6.44313 15.0398 6.00884 16.3018 6.00879C18.3223 6.00879 19.9999 7.68134 20 9.62402C20 10.7995 19.5404 11.9746 18.7666 13.1143C17.9935 14.2529 16.9434 15.3021 15.8604 16.2041C14.7813 17.1028 13.6969 17.8327 12.8799 18.3389C12.5279 18.5569 12.2266 18.7312 12 18.8594C11.7734 18.7312 11.4721 18.5569 11.1201 18.3389C10.3031 17.8327 9.21872 17.1028 8.13965 16.2041C7.05662 15.3021 6.00652 14.2529 5.2334 13.1143C4.45963 11.9746 4 10.7995 4 9.62402C4.00014 7.68268 5.67631 6.00826 7.69922 6C8.95926 6.00028 9.82687 6.43562 10.3789 6.85352C10.6587 7.06535 10.8605 7.2753 10.9883 7.42676C11.0518 7.50209 11.0971 7.56195 11.123 7.59863C11.136 7.61693 11.1439 7.63022 11.1475 7.63574L11.1465 7.63379Z" stroke="#777778" stroke-width="2"/>
</svg>
