<svg width="18" height="19" viewBox="0 0 18 19" fill="none" xmlns="http://www.w3.org/2000/svg">
<path d="M8.27466 0.149597C10.1853 0.149597 11.4601 1.3204 11.9768 1.84003C13.6195 1.91196 14.8174 2.71961 15.5266 3.83221C16.2626 4.98932 16.5246 6.4204 16.5247 7.72479C16.5247 8.37326 16.4529 8.99461 16.3801 9.591C16.307 10.1901 16.2333 10.7622 16.2249 11.3273C16.2081 12.4495 16.4097 13.5409 17.4045 14.8195C17.5009 14.9416 17.5427 15.1001 17.5168 15.2531C17.491 15.4079 17.3998 15.5435 17.2668 15.6271L17.2659 15.6281L17.2639 15.6291C17.2628 15.6298 17.261 15.6308 17.259 15.632C17.2549 15.6345 17.2491 15.6383 17.2415 15.6428C17.2258 15.6519 17.2023 15.6651 17.1721 15.6818C17.1113 15.7154 17.0203 15.7638 16.9016 15.8215C16.6642 15.9369 16.3122 16.092 15.8499 16.2541C14.9587 16.5658 13.6195 16.9018 11.8372 17.1037C10.928 18.1769 9.86975 18.8498 8.77466 18.8498C7.68326 18.8497 6.63208 18.1846 5.72485 17.1183C3.9451 16.9178 2.62812 16.5689 1.76099 16.2531C1.31021 16.0891 0.970057 15.9303 0.741455 15.8117C0.627136 15.7524 0.540057 15.7029 0.481689 15.6682C0.452725 15.6509 0.430359 15.6377 0.415283 15.6281C0.407723 15.6233 0.401762 15.619 0.397705 15.6164C0.396036 15.6153 0.394845 15.6142 0.393799 15.6135L0.391846 15.6125L0.389893 15.6115C0.268076 15.5281 0.184374 15.3993 0.158447 15.2531L0.150635 15.1437C0.153454 15.0347 0.188966 14.928 0.253174 14.8381L0.25415 14.8361C1.23058 13.5093 1.41659 12.2937 1.37524 11.0803C1.35446 10.4706 1.26835 9.86727 1.18579 9.25604C1.10365 8.64785 1.02466 8.03221 1.02466 7.41229C1.0247 5.16815 1.7323 3.32935 3.01978 2.06757C4.3066 0.806467 6.13184 0.149644 8.27466 0.149597ZM11.5383 6.68085C11.105 7.42228 10.2172 8.50793 8.53149 9.03046C8.11117 9.1608 7.62578 9.26625 7.15942 9.38495C6.68707 9.50518 6.22635 9.64145 5.82837 9.83514C5.42695 10.0305 5.10525 10.2541 4.88208 10.5685C4.66034 10.8811 4.52472 11.2983 4.52466 11.8996C4.52466 14.2974 6.06379 15.9168 6.29517 16.1457L6.32739 16.1672L6.33618 16.174L6.34302 16.1818C6.35278 16.1916 6.3632 16.2045 6.3645 16.2062C6.3688 16.2119 6.37372 16.2188 6.37817 16.2248C6.38129 16.229 6.38432 16.2339 6.38696 16.2375C6.38892 16.2394 6.39145 16.242 6.3938 16.2443H6.39282L6.42798 16.2785L6.42993 16.2814C6.44063 16.2949 6.4478 16.3077 6.45239 16.3176C6.45327 16.3195 6.45359 16.3217 6.45435 16.3234C6.46274 16.334 6.47072 16.3443 6.47778 16.3547C7.275 17.3236 8.10414 17.7501 8.77466 17.7502C9.46204 17.7502 10.3036 17.3118 11.1174 16.2971C11.1224 16.2893 11.1283 16.2802 11.135 16.2707L11.1672 16.2228L11.1682 16.2209C11.2441 16.1227 13.0246 13.7834 13.0247 10.8127C13.0247 8.71263 12.1258 7.35192 11.5383 6.68085ZM8.27466 1.25018C6.35265 1.25023 4.82639 1.81773 3.77954 2.84491C2.73344 3.87159 2.12528 5.39498 2.12524 7.41229C2.12524 7.93711 2.19938 8.49968 2.28149 9.10858C2.36317 9.71426 2.4519 10.3629 2.47485 11.0451C2.51647 12.2546 2.29461 13.5792 1.47095 14.9328C1.50238 14.9507 1.53574 14.9724 1.58032 14.9943C1.68843 15.0475 1.85166 15.1173 2.13892 15.2219C2.72734 15.4366 3.57391 15.6699 4.67603 15.8566C4.08368 14.9624 3.42505 13.5955 3.42505 11.8996C3.4252 10.3068 4.31997 9.3532 5.34692 8.85272C5.8543 8.60548 6.39834 8.44301 6.90063 8.31464C7.41099 8.1842 7.86191 8.09209 8.21802 7.98163C9.30951 7.64302 9.96541 7.04217 10.3489 6.52948C10.541 6.27266 10.6657 6.03748 10.7415 5.86737C10.7792 5.7826 10.8045 5.7137 10.8206 5.66718C10.8286 5.64397 10.8346 5.62596 10.8381 5.61444C10.8399 5.60868 10.8413 5.60431 10.842 5.60175C10.8424 5.60054 10.8419 5.59925 10.842 5.59882L10.8499 5.56952V5.53827L10.8625 5.52557V5.50018L10.8997 5.46307V5.41522L10.9631 5.37616L10.97 5.36639L10.9866 5.35077L11.0569 5.29803C11.0794 5.28267 11.1034 5.2676 11.1301 5.25409C11.1651 5.23491 11.2025 5.21881 11.2444 5.20624L11.2649 5.20038H11.304C11.3515 5.19443 11.398 5.19446 11.4456 5.20038H11.4641L11.4778 5.20233C11.614 5.22801 11.7348 5.30527 11.8176 5.41815C11.8195 5.41987 11.8215 5.42104 11.8225 5.42206L11.8411 5.44061L11.842 5.44257C12.3446 5.89269 14.1252 7.69891 14.1252 10.8127C14.1252 12.9887 13.2943 14.8148 12.676 15.8898C13.9003 15.695 14.8339 15.4375 15.4875 15.2082C15.8919 15.0667 16.0549 14.9903 16.1711 14.9299C15.3531 13.6586 15.1083 12.4402 15.1252 11.3098C15.1356 10.6663 15.2112 10.0492 15.2834 9.45624C15.3561 8.86055 15.425 8.28984 15.425 7.72479C15.425 6.56678 15.1758 5.32646 14.5979 4.41815C14.0252 3.51795 13.164 2.91239 11.7502 2.91229H11.7473C11.5999 2.91008 11.4584 2.85145 11.3547 2.74237L11.1741 2.56171C10.6745 2.08265 9.64059 1.25018 8.27466 1.25018ZM6.57446 10.55C6.98856 10.55 7.32446 10.8859 7.32446 11.3C7.32446 11.7141 6.98856 12.05 6.57446 12.05C6.16057 12.0498 5.82446 11.7139 5.82446 11.3C5.82446 10.886 6.16057 10.5502 6.57446 10.55ZM10.9749 10.55C11.3889 10.55 11.7249 10.8859 11.7249 11.3C11.7249 11.7141 11.3889 12.05 10.9749 12.05C10.5608 12.05 10.2249 11.7141 10.2249 11.3C10.2249 10.8859 10.5608 10.55 10.9749 10.55Z" fill="#1C1C1E" stroke="#1C1C1E" stroke-width="0.3"/>
</svg>
