<svg width="24" height="24" viewBox="0 0 24 24" fill="none" xmlns="http://www.w3.org/2000/svg">
<path d="M0 12C0 5.37258 5.37258 0 12 0C18.6274 0 24 5.37258 24 12C24 18.6274 18.6274 24 12 24C5.37258 24 0 18.6274 0 12Z" fill="white"/>
<path d="M12.0031 2.40002C6.69995 2.40002 2.40002 6.69842 2.40002 12C2.40002 17.3016 6.69995 21.6 12.0031 21.6C20.0111 21.6 21.8153 14.1656 21.0641 10.4H20H18.186H12V13.6H18.1906C17.479 16.3586 14.9808 18.4 12 18.4C8.46562 18.4 5.60002 15.5344 5.60002 12C5.60002 8.46562 8.46562 5.60002 12 5.60002C13.6072 5.60002 15.0713 6.19662 16.1953 7.17502L18.4688 4.90315C16.7616 3.34795 14.4935 2.40002 12.0031 2.40002Z" fill="black"/>
</svg>
