<svg width="14" height="19" viewBox="0 0 14 19" fill="none" xmlns="http://www.w3.org/2000/svg">
<mask id="path-1-outside-1_23_5818" maskUnits="userSpaceOnUse" x="-0.699951" y="-0.700012" width="15" height="20" fill="black">
<rect fill="white" x="-0.699951" y="-0.700012" width="15" height="20"/>
<path d="M6.60068 0.299988C4.58193 0.299988 2.98661 0.899988 1.91318 1.99999C0.839739 3.09999 0.313176 4.6703 0.313176 6.53749C0.313176 7.31093 0.656926 8.80624 0.938176 9.68749C0.820989 9.78749 0.702239 9.85155 0.588176 10.025C0.395989 10.3187 0.255364 10.7297 0.313176 11.225C0.481926 12.6547 1.3788 13.1656 1.67568 13.3125C1.78974 13.9812 2.13505 14.8062 2.70068 15.65C3.30693 16.5547 4.14443 17.4234 5.16318 17.9125C5.18193 17.9219 5.19443 17.9406 5.21318 17.95C5.58036 18.389 6.09911 18.7 6.71318 18.7C7.32724 18.7 7.84599 18.389 8.21318 17.95C8.23193 17.9406 8.24443 17.9219 8.26318 17.9125C9.2788 17.4219 10.0991 16.5547 10.7007 15.65C11.2601 14.8078 11.5991 13.9781 11.7132 13.3125C12.0069 13.1734 12.9304 12.6766 13.1007 11.2375C13.1585 10.7406 13.0069 10.3203 12.8132 10.025C12.6976 9.84999 12.5804 9.78905 12.4632 9.68749C12.7444 8.7953 13.1132 7.41405 13.1132 5.89999C13.1132 5.20468 12.971 4.25311 12.5007 3.42499C12.0585 2.64686 11.2585 2.00311 10.1257 1.92499C9.61161 1.1453 8.50068 0.299988 6.60068 0.299988ZM6.60068 1.09999C8.39911 1.09999 9.26005 1.9328 9.56318 2.48749C9.63193 2.61718 9.7663 2.69843 9.91318 2.69999C10.8897 2.69999 11.4288 3.17186 11.8007 3.82499C12.1726 4.47811 12.3132 5.32343 12.3132 5.89999C12.3132 7.3828 11.9101 8.84218 11.6382 9.67499C11.5835 9.85155 11.6554 10.0422 11.8132 10.1375C11.8819 10.1797 12.0397 10.3047 12.1507 10.475C12.2616 10.6453 12.3366 10.85 12.3007 11.15C12.1476 12.4391 11.2507 12.6875 11.2507 12.6875C11.1007 12.7359 10.9929 12.8687 10.9757 13.025C10.9288 13.4672 10.5944 14.3641 10.0382 15.2C9.48193 16.0359 8.71786 16.8328 7.87568 17.225C7.81005 17.2547 7.7538 17.3031 7.71318 17.3625C7.49755 17.6844 7.13193 17.9 6.71318 17.9C6.29443 17.9 5.9288 17.6844 5.71318 17.3625C5.67255 17.3031 5.6163 17.2547 5.55068 17.225C4.70536 16.8328 3.93661 16.0359 3.37568 15.2C2.81474 14.3641 2.47099 13.4656 2.42568 13.025C2.40693 12.8766 2.30536 12.75 2.16318 12.7C2.16318 12.7 1.26474 12.4297 1.11318 11.1375C1.07724 10.8359 1.1538 10.6281 1.26318 10.4625C1.37255 10.2969 1.5163 10.1828 1.58818 10.1375C1.75224 10.0406 1.82568 9.84218 1.76318 9.66249C1.52099 8.96405 1.11318 7.04999 1.11318 6.53749C1.11318 4.8203 1.58818 3.47186 2.48818 2.54999C3.38818 1.62811 4.73818 1.09999 6.60068 1.09999ZM9.63818 4.14999C9.62568 4.15311 9.61318 4.1578 9.60068 4.16249C9.59286 4.16561 9.58349 4.1703 9.57568 4.17499C9.54443 4.18436 9.5163 4.19686 9.48818 4.21249C9.48036 4.21561 9.47099 4.2203 9.46318 4.22499C9.46318 4.22968 9.46318 4.2328 9.46318 4.23749C9.45068 4.2453 9.43818 4.25311 9.42568 4.26249C9.4163 4.2703 9.40849 4.27811 9.40068 4.28749C9.39599 4.2953 9.3913 4.30468 9.38818 4.31249C9.36943 4.33593 9.35224 4.36093 9.33818 4.38749V4.39999C9.33349 4.4078 9.3288 4.41718 9.32568 4.42499C9.29286 4.48749 9.13505 4.76561 8.71318 5.11249C8.2413 5.49999 7.4913 5.89999 6.31318 5.89999C5.56318 5.89999 4.62255 5.90624 3.81318 6.19999C3.40849 6.34686 3.03036 6.57343 2.75068 6.92499C2.47099 7.27655 2.31318 7.74374 2.31318 8.29999C2.31161 8.44374 2.38661 8.57811 2.51161 8.65155C2.63661 8.72343 2.78974 8.72343 2.91474 8.65155C3.03974 8.57811 3.11474 8.44374 3.11318 8.29999C3.11318 7.88905 3.21318 7.62968 3.37568 7.42499C3.53818 7.2203 3.7788 7.06249 4.08818 6.94999C4.70693 6.72655 5.57568 6.69999 6.31318 6.69999C7.67568 6.69999 8.63349 6.22499 9.22568 5.73749C9.42411 5.57499 9.57411 5.41249 9.70068 5.26249C10.0882 5.88593 10.7132 7.06249 10.7132 8.29999C10.7116 8.44374 10.7866 8.57811 10.9116 8.65155C11.0366 8.72343 11.1897 8.72343 11.3147 8.65155C11.4397 8.57811 11.5147 8.44374 11.5132 8.29999C11.5132 6.31249 10.3101 4.68436 10.1007 4.41249C10.1007 4.4078 10.1007 4.40468 10.1007 4.39999C10.0913 4.38749 10.0679 4.34218 10.0632 4.33749C10.0554 4.32811 10.0476 4.3203 10.0382 4.31249L10.0257 4.29999C10.0226 4.29218 10.0179 4.2828 10.0132 4.27499C10.0085 4.27499 10.0054 4.27499 10.0007 4.27499C9.96943 4.23905 9.93036 4.20936 9.88818 4.18749C9.88349 4.1828 9.88036 4.17968 9.87568 4.17499C9.86786 4.1703 9.85849 4.16561 9.85068 4.16249C9.84599 4.16249 9.84286 4.16249 9.83818 4.16249C9.83036 4.1578 9.82099 4.15311 9.81318 4.14999C9.80536 4.14999 9.79599 4.14999 9.78818 4.14999C9.78349 4.14999 9.78036 4.14999 9.77568 4.14999C9.76786 4.14999 9.75849 4.14999 9.75068 4.14999C9.74599 4.14999 9.74286 4.14999 9.73818 4.14999C9.73036 4.14999 9.72099 4.14999 9.71318 4.14999C9.70849 4.14999 9.70536 4.14999 9.70068 4.14999C9.69286 4.14999 9.68349 4.14999 9.67568 4.14999C9.66318 4.14999 9.65068 4.14999 9.63818 4.14999ZM4.51318 10.3C4.18193 10.3 3.91318 10.5687 3.91318 10.9C3.91318 11.2312 4.18193 11.5 4.51318 11.5C4.84443 11.5 5.11318 11.2312 5.11318 10.9C5.11318 10.5687 4.84443 10.3 4.51318 10.3ZM8.91318 10.3C8.58193 10.3 8.31318 10.5687 8.31318 10.9C8.31318 11.2312 8.58193 11.5 8.91318 11.5C9.24443 11.5 9.51318 11.2312 9.51318 10.9C9.51318 10.5687 9.24443 10.3 8.91318 10.3Z"/>
</mask>
<path d="M6.60068 0.299988C4.58193 0.299988 2.98661 0.899988 1.91318 1.99999C0.839739 3.09999 0.313176 4.6703 0.313176 6.53749C0.313176 7.31093 0.656926 8.80624 0.938176 9.68749C0.820989 9.78749 0.702239 9.85155 0.588176 10.025C0.395989 10.3187 0.255364 10.7297 0.313176 11.225C0.481926 12.6547 1.3788 13.1656 1.67568 13.3125C1.78974 13.9812 2.13505 14.8062 2.70068 15.65C3.30693 16.5547 4.14443 17.4234 5.16318 17.9125C5.18193 17.9219 5.19443 17.9406 5.21318 17.95C5.58036 18.389 6.09911 18.7 6.71318 18.7C7.32724 18.7 7.84599 18.389 8.21318 17.95C8.23193 17.9406 8.24443 17.9219 8.26318 17.9125C9.2788 17.4219 10.0991 16.5547 10.7007 15.65C11.2601 14.8078 11.5991 13.9781 11.7132 13.3125C12.0069 13.1734 12.9304 12.6766 13.1007 11.2375C13.1585 10.7406 13.0069 10.3203 12.8132 10.025C12.6976 9.84999 12.5804 9.78905 12.4632 9.68749C12.7444 8.7953 13.1132 7.41405 13.1132 5.89999C13.1132 5.20468 12.971 4.25311 12.5007 3.42499C12.0585 2.64686 11.2585 2.00311 10.1257 1.92499C9.61161 1.1453 8.50068 0.299988 6.60068 0.299988ZM6.60068 1.09999C8.39911 1.09999 9.26005 1.9328 9.56318 2.48749C9.63193 2.61718 9.7663 2.69843 9.91318 2.69999C10.8897 2.69999 11.4288 3.17186 11.8007 3.82499C12.1726 4.47811 12.3132 5.32343 12.3132 5.89999C12.3132 7.3828 11.9101 8.84218 11.6382 9.67499C11.5835 9.85155 11.6554 10.0422 11.8132 10.1375C11.8819 10.1797 12.0397 10.3047 12.1507 10.475C12.2616 10.6453 12.3366 10.85 12.3007 11.15C12.1476 12.4391 11.2507 12.6875 11.2507 12.6875C11.1007 12.7359 10.9929 12.8687 10.9757 13.025C10.9288 13.4672 10.5944 14.3641 10.0382 15.2C9.48193 16.0359 8.71786 16.8328 7.87568 17.225C7.81005 17.2547 7.7538 17.3031 7.71318 17.3625C7.49755 17.6844 7.13193 17.9 6.71318 17.9C6.29443 17.9 5.9288 17.6844 5.71318 17.3625C5.67255 17.3031 5.6163 17.2547 5.55068 17.225C4.70536 16.8328 3.93661 16.0359 3.37568 15.2C2.81474 14.3641 2.47099 13.4656 2.42568 13.025C2.40693 12.8766 2.30536 12.75 2.16318 12.7C2.16318 12.7 1.26474 12.4297 1.11318 11.1375C1.07724 10.8359 1.1538 10.6281 1.26318 10.4625C1.37255 10.2969 1.5163 10.1828 1.58818 10.1375C1.75224 10.0406 1.82568 9.84218 1.76318 9.66249C1.52099 8.96405 1.11318 7.04999 1.11318 6.53749C1.11318 4.8203 1.58818 3.47186 2.48818 2.54999C3.38818 1.62811 4.73818 1.09999 6.60068 1.09999ZM9.63818 4.14999C9.62568 4.15311 9.61318 4.1578 9.60068 4.16249C9.59286 4.16561 9.58349 4.1703 9.57568 4.17499C9.54443 4.18436 9.5163 4.19686 9.48818 4.21249C9.48036 4.21561 9.47099 4.2203 9.46318 4.22499C9.46318 4.22968 9.46318 4.2328 9.46318 4.23749C9.45068 4.2453 9.43818 4.25311 9.42568 4.26249C9.4163 4.2703 9.40849 4.27811 9.40068 4.28749C9.39599 4.2953 9.3913 4.30468 9.38818 4.31249C9.36943 4.33593 9.35224 4.36093 9.33818 4.38749V4.39999C9.33349 4.4078 9.3288 4.41718 9.32568 4.42499C9.29286 4.48749 9.13505 4.76561 8.71318 5.11249C8.2413 5.49999 7.4913 5.89999 6.31318 5.89999C5.56318 5.89999 4.62255 5.90624 3.81318 6.19999C3.40849 6.34686 3.03036 6.57343 2.75068 6.92499C2.47099 7.27655 2.31318 7.74374 2.31318 8.29999C2.31161 8.44374 2.38661 8.57811 2.51161 8.65155C2.63661 8.72343 2.78974 8.72343 2.91474 8.65155C3.03974 8.57811 3.11474 8.44374 3.11318 8.29999C3.11318 7.88905 3.21318 7.62968 3.37568 7.42499C3.53818 7.2203 3.7788 7.06249 4.08818 6.94999C4.70693 6.72655 5.57568 6.69999 6.31318 6.69999C7.67568 6.69999 8.63349 6.22499 9.22568 5.73749C9.42411 5.57499 9.57411 5.41249 9.70068 5.26249C10.0882 5.88593 10.7132 7.06249 10.7132 8.29999C10.7116 8.44374 10.7866 8.57811 10.9116 8.65155C11.0366 8.72343 11.1897 8.72343 11.3147 8.65155C11.4397 8.57811 11.5147 8.44374 11.5132 8.29999C11.5132 6.31249 10.3101 4.68436 10.1007 4.41249C10.1007 4.4078 10.1007 4.40468 10.1007 4.39999C10.0913 4.38749 10.0679 4.34218 10.0632 4.33749C10.0554 4.32811 10.0476 4.3203 10.0382 4.31249L10.0257 4.29999C10.0226 4.29218 10.0179 4.2828 10.0132 4.27499C10.0085 4.27499 10.0054 4.27499 10.0007 4.27499C9.96943 4.23905 9.93036 4.20936 9.88818 4.18749C9.88349 4.1828 9.88036 4.17968 9.87568 4.17499C9.86786 4.1703 9.85849 4.16561 9.85068 4.16249C9.84599 4.16249 9.84286 4.16249 9.83818 4.16249C9.83036 4.1578 9.82099 4.15311 9.81318 4.14999C9.80536 4.14999 9.79599 4.14999 9.78818 4.14999C9.78349 4.14999 9.78036 4.14999 9.77568 4.14999C9.76786 4.14999 9.75849 4.14999 9.75068 4.14999C9.74599 4.14999 9.74286 4.14999 9.73818 4.14999C9.73036 4.14999 9.72099 4.14999 9.71318 4.14999C9.70849 4.14999 9.70536 4.14999 9.70068 4.14999C9.69286 4.14999 9.68349 4.14999 9.67568 4.14999C9.66318 4.14999 9.65068 4.14999 9.63818 4.14999ZM4.51318 10.3C4.18193 10.3 3.91318 10.5687 3.91318 10.9C3.91318 11.2312 4.18193 11.5 4.51318 11.5C4.84443 11.5 5.11318 11.2312 5.11318 10.9C5.11318 10.5687 4.84443 10.3 4.51318 10.3ZM8.91318 10.3C8.58193 10.3 8.31318 10.5687 8.31318 10.9C8.31318 11.2312 8.58193 11.5 8.91318 11.5C9.24443 11.5 9.51318 11.2312 9.51318 10.9C9.51318 10.5687 9.24443 10.3 8.91318 10.3Z" fill="#1C1C1E"/>
<path d="M6.60068 0.299988C4.58193 0.299988 2.98661 0.899988 1.91318 1.99999C0.839739 3.09999 0.313176 4.6703 0.313176 6.53749C0.313176 7.31093 0.656926 8.80624 0.938176 9.68749C0.820989 9.78749 0.702239 9.85155 0.588176 10.025C0.395989 10.3187 0.255364 10.7297 0.313176 11.225C0.481926 12.6547 1.3788 13.1656 1.67568 13.3125C1.78974 13.9812 2.13505 14.8062 2.70068 15.65C3.30693 16.5547 4.14443 17.4234 5.16318 17.9125C5.18193 17.9219 5.19443 17.9406 5.21318 17.95C5.58036 18.389 6.09911 18.7 6.71318 18.7C7.32724 18.7 7.84599 18.389 8.21318 17.95C8.23193 17.9406 8.24443 17.9219 8.26318 17.9125C9.2788 17.4219 10.0991 16.5547 10.7007 15.65C11.2601 14.8078 11.5991 13.9781 11.7132 13.3125C12.0069 13.1734 12.9304 12.6766 13.1007 11.2375C13.1585 10.7406 13.0069 10.3203 12.8132 10.025C12.6976 9.84999 12.5804 9.78905 12.4632 9.68749C12.7444 8.7953 13.1132 7.41405 13.1132 5.89999C13.1132 5.20468 12.971 4.25311 12.5007 3.42499C12.0585 2.64686 11.2585 2.00311 10.1257 1.92499C9.61161 1.1453 8.50068 0.299988 6.60068 0.299988ZM6.60068 1.09999C8.39911 1.09999 9.26005 1.9328 9.56318 2.48749C9.63193 2.61718 9.7663 2.69843 9.91318 2.69999C10.8897 2.69999 11.4288 3.17186 11.8007 3.82499C12.1726 4.47811 12.3132 5.32343 12.3132 5.89999C12.3132 7.3828 11.9101 8.84218 11.6382 9.67499C11.5835 9.85155 11.6554 10.0422 11.8132 10.1375C11.8819 10.1797 12.0397 10.3047 12.1507 10.475C12.2616 10.6453 12.3366 10.85 12.3007 11.15C12.1476 12.4391 11.2507 12.6875 11.2507 12.6875C11.1007 12.7359 10.9929 12.8687 10.9757 13.025C10.9288 13.4672 10.5944 14.3641 10.0382 15.2C9.48193 16.0359 8.71786 16.8328 7.87568 17.225C7.81005 17.2547 7.7538 17.3031 7.71318 17.3625C7.49755 17.6844 7.13193 17.9 6.71318 17.9C6.29443 17.9 5.9288 17.6844 5.71318 17.3625C5.67255 17.3031 5.6163 17.2547 5.55068 17.225C4.70536 16.8328 3.93661 16.0359 3.37568 15.2C2.81474 14.3641 2.47099 13.4656 2.42568 13.025C2.40693 12.8766 2.30536 12.75 2.16318 12.7C2.16318 12.7 1.26474 12.4297 1.11318 11.1375C1.07724 10.8359 1.1538 10.6281 1.26318 10.4625C1.37255 10.2969 1.5163 10.1828 1.58818 10.1375C1.75224 10.0406 1.82568 9.84218 1.76318 9.66249C1.52099 8.96405 1.11318 7.04999 1.11318 6.53749C1.11318 4.8203 1.58818 3.47186 2.48818 2.54999C3.38818 1.62811 4.73818 1.09999 6.60068 1.09999ZM9.63818 4.14999C9.62568 4.15311 9.61318 4.1578 9.60068 4.16249C9.59286 4.16561 9.58349 4.1703 9.57568 4.17499C9.54443 4.18436 9.5163 4.19686 9.48818 4.21249C9.48036 4.21561 9.47099 4.2203 9.46318 4.22499C9.46318 4.22968 9.46318 4.2328 9.46318 4.23749C9.45068 4.2453 9.43818 4.25311 9.42568 4.26249C9.4163 4.2703 9.40849 4.27811 9.40068 4.28749C9.39599 4.2953 9.3913 4.30468 9.38818 4.31249C9.36943 4.33593 9.35224 4.36093 9.33818 4.38749V4.39999C9.33349 4.4078 9.3288 4.41718 9.32568 4.42499C9.29286 4.48749 9.13505 4.76561 8.71318 5.11249C8.2413 5.49999 7.4913 5.89999 6.31318 5.89999C5.56318 5.89999 4.62255 5.90624 3.81318 6.19999C3.40849 6.34686 3.03036 6.57343 2.75068 6.92499C2.47099 7.27655 2.31318 7.74374 2.31318 8.29999C2.31161 8.44374 2.38661 8.57811 2.51161 8.65155C2.63661 8.72343 2.78974 8.72343 2.91474 8.65155C3.03974 8.57811 3.11474 8.44374 3.11318 8.29999C3.11318 7.88905 3.21318 7.62968 3.37568 7.42499C3.53818 7.2203 3.7788 7.06249 4.08818 6.94999C4.70693 6.72655 5.57568 6.69999 6.31318 6.69999C7.67568 6.69999 8.63349 6.22499 9.22568 5.73749C9.42411 5.57499 9.57411 5.41249 9.70068 5.26249C10.0882 5.88593 10.7132 7.06249 10.7132 8.29999C10.7116 8.44374 10.7866 8.57811 10.9116 8.65155C11.0366 8.72343 11.1897 8.72343 11.3147 8.65155C11.4397 8.57811 11.5147 8.44374 11.5132 8.29999C11.5132 6.31249 10.3101 4.68436 10.1007 4.41249C10.1007 4.4078 10.1007 4.40468 10.1007 4.39999C10.0913 4.38749 10.0679 4.34218 10.0632 4.33749C10.0554 4.32811 10.0476 4.3203 10.0382 4.31249L10.0257 4.29999C10.0226 4.29218 10.0179 4.2828 10.0132 4.27499C10.0085 4.27499 10.0054 4.27499 10.0007 4.27499C9.96943 4.23905 9.93036 4.20936 9.88818 4.18749C9.88349 4.1828 9.88036 4.17968 9.87568 4.17499C9.86786 4.1703 9.85849 4.16561 9.85068 4.16249C9.84599 4.16249 9.84286 4.16249 9.83818 4.16249C9.83036 4.1578 9.82099 4.15311 9.81318 4.14999C9.80536 4.14999 9.79599 4.14999 9.78818 4.14999C9.78349 4.14999 9.78036 4.14999 9.77568 4.14999C9.76786 4.14999 9.75849 4.14999 9.75068 4.14999C9.74599 4.14999 9.74286 4.14999 9.73818 4.14999C9.73036 4.14999 9.72099 4.14999 9.71318 4.14999C9.70849 4.14999 9.70536 4.14999 9.70068 4.14999C9.69286 4.14999 9.68349 4.14999 9.67568 4.14999C9.66318 4.14999 9.65068 4.14999 9.63818 4.14999ZM4.51318 10.3C4.18193 10.3 3.91318 10.5687 3.91318 10.9C3.91318 11.2312 4.18193 11.5 4.51318 11.5C4.84443 11.5 5.11318 11.2312 5.11318 10.9C5.11318 10.5687 4.84443 10.3 4.51318 10.3ZM8.91318 10.3C8.58193 10.3 8.31318 10.5687 8.31318 10.9C8.31318 11.2312 8.58193 11.5 8.91318 11.5C9.24443 11.5 9.51318 11.2312 9.51318 10.9C9.51318 10.5687 9.24443 10.3 8.91318 10.3Z" stroke="#1C1C1E" stroke-width="0.6" mask="url(#path-1-outside-1_23_5818)"/>
</svg>
