<svg width="18" height="16" viewBox="0 0 18 16" fill="none" xmlns="http://www.w3.org/2000/svg">
<path d="M13.3141 0V1.3932H15.5444L13.6521 3.22177C12.9452 2.73469 12.0835 2.4381 11.1514 2.4381C8.76627 2.4381 6.82603 4.31293 6.82603 6.61769C6.82603 8.05306 7.59621 9.37823 8.8423 10.1442C8.93382 9.91156 8.98874 9.6585 8.98874 9.40408C8.98874 8.90884 8.84512 8.42585 8.65081 8.01088H8.66208C8.40723 7.59592 8.26783 7.11837 8.26783 6.61769C8.26783 5.08163 9.5618 3.83129 11.1514 3.83129C12.7411 3.83129 14.035 5.08163 14.035 6.61769C14.035 7.90748 13.1269 8.98912 11.8723 9.30612C11.8737 9.33878 11.8723 9.37143 11.8723 9.40408C11.8723 9.87075 11.7935 10.3265 11.6583 10.7646C13.8055 10.5211 15.4768 8.75646 15.4768 6.61769C15.4768 5.71701 15.1699 4.88435 14.6658 4.20136L16.5582 2.37279V4.52789H18V0H13.3141ZM6.30788 5.25714C4.16489 5.5034 2.50063 7.26803 2.50063 9.40408C2.50063 10.302 2.79912 11.1388 3.30038 11.8204L2.12891 12.9524L1.0025 11.8966L0 12.898L1.11514 13.9429L0 15.0095L1.02503 16L2.15144 14.9116L3.27785 15.9673L4.28035 14.966L3.16521 13.9211L4.32541 12.8C5.03223 13.2871 5.89393 13.5837 6.82603 13.5837C9.2112 13.5837 11.1514 11.7088 11.1514 9.40408C11.1514 7.97007 10.3798 6.65442 9.13517 5.88844C9.04224 6.12109 8.98874 6.36463 8.98874 6.61769C8.98874 6.97959 9.32384 8.06395 9.51815 8.38095L9.50688 8.40272C9.63501 8.71701 9.70964 9.05306 9.70964 9.40408C9.70964 10.9401 8.41568 12.1905 6.82603 12.1905C5.23639 12.1905 3.94243 10.9401 3.94243 9.40408C3.94243 8.10612 4.86045 7.01361 6.10513 6.70476C6.10372 6.67347 6.10513 6.64762 6.10513 6.61769C6.10513 6.15238 6.17272 5.69524 6.30788 5.25714Z" fill="#1C1C1E"/>
</svg>
