<svg width="16" height="20" viewBox="0 0 16 20" fill="none" xmlns="http://www.w3.org/2000/svg">
<path d="M8 0C5.24746 0 3 2.24746 3 5C3 7.75254 5.24746 10 8 10C10.7525 10 13 7.75254 13 5C13 2.24746 10.7525 0 8 0ZM2.25 12C1.01765 12 0 13.0176 0 14.25V14.8496C0 16.3203 0.936193 17.638 2.35937 18.5449C3.78256 19.4518 5.72791 20 8 20C10.2721 20 12.2174 19.4518 13.6406 18.5449C15.0638 17.638 16 16.3203 16 14.8496V14.25C16 13.0176 14.9824 12 13.75 12H2.25ZM12 18.5L15 16C15.4676 16 14.5 13.7824 14.5 14.25V14.8496C14.5 15.679 13.9608 16.5622 12.834 17.2803C11.7072 17.9983 10.0279 17.2803 8 17.2803C5.97209 17.2803 6.12682 16.7181 5 16C3.87318 15.2819 1.5 15.679 1.5 14.8496L2 17.5C2 17.0324 11.5324 18.5 12 18.5Z" fill="#1C1C1E"/>
</svg>
