<svg width="20" height="20" viewBox="0 0 20 20" fill="none" xmlns="http://www.w3.org/2000/svg">
<path d="M10 1.15039C14.8829 1.15039 18.8506 5.1171 18.8506 10C18.8506 14.8829 14.8829 18.8496 10 18.8496C7.79296 18.8495 5.77092 18.0385 4.2207 16.7002C4.14315 16.6334 4.08688 16.5449 4.05957 16.4463C4.03234 16.3478 4.03531 16.2435 4.06738 16.1465L4.38477 15.1924L4.46387 14.9678C5.32599 12.6725 7.53475 11.1456 10 11.1455C11.2687 11.1455 12.468 11.5499 13.4521 12.2578L13.4609 12.2637C14.1724 12.7744 14.7708 13.4436 15.1992 14.2314H15.1982C15.2318 14.2906 15.2544 14.3554 15.2627 14.4229C15.2711 14.4911 15.2658 14.5608 15.2471 14.627C15.2284 14.6931 15.1962 14.7548 15.1533 14.8086C15.1105 14.8622 15.0573 14.9066 14.9971 14.9395C14.9367 14.9723 14.8701 14.993 14.8018 15C14.7335 15.0069 14.6643 15.0005 14.5986 14.9805C14.5329 14.9603 14.4717 14.9268 14.4189 14.8828C14.3667 14.8392 14.3235 14.7858 14.292 14.7256L14.1523 14.4863C13.8135 13.9402 13.3717 13.4714 12.8574 13.1025V13.1016H12.8564C12.0423 12.5135 11.0524 12.1797 10 12.1797C7.89509 12.1798 6.02545 13.52 5.36621 15.5166L5.36133 15.5293L5.16602 16.1143C6.49895 17.1706 8.16733 17.8163 10 17.8164C14.3221 17.8164 17.8174 14.3221 17.8174 10C17.8174 5.6779 14.3221 2.18359 10 2.18359C6.56858 2.18373 3.66525 4.39341 2.6123 7.46387L3.64648 6.73145C3.70186 6.69221 3.76488 6.66447 3.83105 6.64941C3.89708 6.6344 3.96547 6.63222 4.03223 6.64355C4.09903 6.65496 4.16333 6.67975 4.2207 6.71582C4.27808 6.75194 4.32798 6.79918 4.36719 6.85449C4.40642 6.90989 4.43418 6.97287 4.44922 7.03906C4.46421 7.10516 4.46648 7.17343 4.45508 7.24023C4.44364 7.30714 4.41899 7.37128 4.38281 7.42871C4.34664 7.48611 4.29952 7.536 4.24414 7.5752L2.06836 9.11816C2.00522 9.16295 1.93274 9.19301 1.85645 9.20605C1.78012 9.21904 1.70138 9.21469 1.62695 9.19336C1.55246 9.17195 1.48364 9.1336 1.42578 9.08203C1.3679 9.03042 1.32178 8.96613 1.29199 8.89453L0.264648 6.43457L0.243164 6.375C0.225159 6.31391 0.218314 6.24938 0.223633 6.18555C0.230768 6.10066 0.259263 6.01871 0.305664 5.94727C0.352065 5.87587 0.415615 5.81739 0.490234 5.77637C0.565027 5.73532 0.649061 5.71269 0.734375 5.71191C0.838268 5.71095 0.940001 5.74205 1.02637 5.7998C1.11269 5.85759 1.18 5.93975 1.21875 6.03613H1.21777L1.65332 7.0791C2.86152 3.62849 6.1412 1.15052 10 1.15039ZM10 4.06641C11.687 4.06641 13.0166 5.54054 13.0166 7.29199C13.0164 9.0433 11.6869 10.5166 10 10.5166C8.31323 10.5164 6.98356 9.0432 6.9834 7.29199C6.9834 5.54065 8.31313 4.06659 10 4.06641ZM10 5.09961C8.92634 5.09979 8.0166 6.05136 8.0166 7.29199C8.01676 8.53247 8.92643 9.48322 10 9.4834C11.0737 9.4834 11.9832 8.53259 11.9834 7.29199C11.9834 6.05124 11.0738 5.09961 10 5.09961Z" fill="#1C1C1E" stroke="#1C1C1E" stroke-width="0.2"/>
</svg>
