<svg width="20" height="20" viewBox="0 0 20 20" fill="none" xmlns="http://www.w3.org/2000/svg">
<g clip-path="url(#clip0_23_5959)">
<path d="M10.0001 7.50002C9.25651 7.48804 8.5303 7.72505 7.93695 8.17335C7.3436 8.62165 6.91721 9.25549 6.72559 9.97405C6.53398 10.6926 6.58815 11.4546 6.87949 12.1388C7.17083 12.823 7.68261 13.3902 8.33341 13.75M10.0001 2.50002V4.16669M5.50008 15.3334L4.33341 16.5M3.33341 10.8334H1.66675M5.50008 6.33335L4.33341 5.16669M16.6667 12.1126V3.33335C16.6667 2.41288 15.9206 1.66669 15.0001 1.66669C14.0796 1.66669 13.3334 2.41288 13.3334 3.33335V12.1126C12.3371 12.689 11.6667 13.7662 11.6667 15C11.6667 16.841 13.1591 18.3334 15.0001 18.3334C16.841 18.3334 18.3334 16.841 18.3334 15C18.3334 13.7662 17.6631 12.689 16.6667 12.1126Z" stroke="#1C1C1E" stroke-width="1.66667" stroke-linecap="round" stroke-linejoin="round"/>
</g>
<defs>
<clipPath id="clip0_23_5959">
<rect width="20" height="20" fill="white"/>
</clipPath>
</defs>
</svg>
