<svg width="24" height="24" viewBox="0 0 24 24" fill="none" xmlns="http://www.w3.org/2000/svg">
<g clip-path="url(#clip0_1_1349)">
<path d="M12 5.84961C13.1327 5.84961 14.0701 6.74255 14.0703 7.8457C14.0703 8.76814 13.5135 9.34446 13.1143 9.66504C13.0654 9.70428 13.0186 9.74072 12.9756 9.77441C12.9323 9.80829 12.8925 9.83933 12.8564 9.86816C12.7829 9.92696 12.7299 9.97217 12.6953 10.0098C12.655 10.0536 12.6428 10.0731 12.6377 10.085C12.6338 10.0941 12.6299 10.1093 12.6299 10.1543V10.6904C13.7094 11.1608 22.2339 14.8689 22.8311 15.1367L22.832 15.1377C23.0499 15.2363 23.3416 15.3494 23.6123 15.5596C23.8928 15.7775 24.1503 16.1603 24.1504 16.6152C24.1504 17.4626 23.4262 18.1504 22.5596 18.1504H1.44043C0.573811 18.1504 -0.150391 17.4626 -0.150391 16.6152C-0.150333 16.1655 0.111168 15.7905 0.387695 15.5742C0.655462 15.3648 0.937372 15.2437 1.16699 15.1377C1.49865 14.9855 4.08878 13.8502 6.66016 12.7275C8.90252 11.7495 10.8775 10.9009 11.3701 10.6895V10.1543C11.3701 9.76388 11.5518 9.42437 11.7539 9.20215C11.948 8.98889 12.1768 8.84396 12.3262 8.72461C12.4964 8.58853 12.6108 8.49195 12.6885 8.37012C12.7622 8.25443 12.8096 8.10244 12.8096 7.8457C12.8093 7.41862 12.4588 7.07324 12 7.07324C11.5412 7.07324 11.1907 7.41862 11.1904 7.8457C11.1925 8.06734 11.0718 8.27216 10.876 8.38281H10.874C10.6789 8.4906 10.4402 8.49068 10.2451 8.38281H10.2441C10.048 8.272 9.92728 8.06676 9.92969 7.84473C9.9305 6.74203 10.8676 5.84961 12 5.84961ZM7.18457 13.8535L1.71289 16.2471C1.464 16.3612 1.26675 16.458 1.17285 16.5312C1.14411 16.5537 1.12631 16.5674 1.11426 16.5781C1.11312 16.5791 1.11126 16.5792 1.11035 16.5801C1.10989 16.5865 1.11035 16.5971 1.11035 16.6152C1.11035 16.7883 1.2458 16.9268 1.44043 16.9268H22.5596C22.7542 16.9268 22.8896 16.7883 22.8896 16.6152C22.8896 16.5561 22.885 16.5608 22.8896 16.5693C22.8884 16.5679 22.8865 16.565 22.8828 16.5615C22.8725 16.5518 22.8561 16.5393 22.8291 16.5186C22.7866 16.486 22.7152 16.4452 22.6172 16.3975C22.5211 16.3506 22.4091 16.3007 22.2891 16.2471H22.2881C21.7889 16.023 12.8762 12.1278 11.999 11.7441C11.5906 11.9233 9.49274 12.8473 7.18457 13.8535Z" fill="#777778" stroke="#777778" stroke-width="0.3"/>
</g>
<defs>
<clipPath id="clip0_1_1349">
<rect width="24" height="24" fill="white"/>
</clipPath>
</defs>
</svg>
