<svg width="24" height="13" viewBox="0 0 24 13" fill="none" xmlns="http://www.w3.org/2000/svg">
<path d="M12 0.149658C13.1327 0.149658 14.0701 1.0426 14.0703 2.14575C14.0703 3.06819 13.5135 3.64451 13.1143 3.96509C13.0654 4.00433 13.0186 4.04077 12.9756 4.07446C12.9323 4.10834 12.8925 4.13938 12.8564 4.16821C12.7829 4.22701 12.7299 4.27221 12.6953 4.30981C12.655 4.35364 12.6428 4.37317 12.6377 4.38501C12.6338 4.39415 12.6299 4.40936 12.6299 4.45435V4.99048C13.7094 5.46087 22.2339 9.16899 22.8311 9.43677L22.832 9.43774C23.0499 9.5364 23.3416 9.64944 23.6123 9.85962C23.8928 10.0775 24.1503 10.4603 24.1504 10.9153C24.1504 11.7626 23.4262 12.4504 22.5596 12.4504H1.44043C0.573811 12.4504 -0.150391 11.7626 -0.150391 10.9153C-0.150332 10.4656 0.111168 10.0906 0.387695 9.87427C0.655462 9.66484 0.937372 9.54372 1.16699 9.43774C1.49865 9.28554 4.08878 8.15029 6.66016 7.02759C8.90252 6.0495 10.8775 5.20096 11.3701 4.9895V4.45435C11.3701 4.06392 11.5518 3.72442 11.7539 3.5022C11.948 3.28894 12.1768 3.14401 12.3262 3.02466C12.4964 2.88858 12.6108 2.792 12.6885 2.67017C12.7622 2.55448 12.8096 2.40249 12.8096 2.14575C12.8093 1.71867 12.4588 1.37329 12 1.37329C11.5412 1.37329 11.1907 1.71867 11.1904 2.14575C11.1925 2.36738 11.0718 2.57221 10.876 2.68286H10.874C10.6789 2.79064 10.4402 2.79072 10.2451 2.68286H10.2441C10.048 2.57205 9.92728 2.36681 9.92969 2.14478C9.9305 1.04208 10.8676 0.149658 12 0.149658ZM1.11426 10.8782C1.11312 10.8792 1.11126 10.8793 1.11035 10.8801C1.10989 10.8865 1.11035 10.8971 1.11035 10.9153C1.11035 11.0884 1.2458 11.2268 1.44043 11.2268H1.7627C1.72636 11.2158 1.69191 11.2006 1.66211 11.1868C1.53451 11.1277 1.37505 11.0253 1.25684 10.9534C1.20026 10.9189 1.15358 10.8919 1.11816 10.8743C1.11672 10.8755 1.11557 10.877 1.11426 10.8782ZM22.8594 10.887C22.7909 10.944 22.7084 11.0259 22.6104 11.1174C22.5716 11.1536 22.5301 11.1906 22.4883 11.2268H22.5596C22.7542 11.2268 22.8896 11.0884 22.8896 10.9153C22.8896 10.8562 22.885 10.8609 22.8896 10.8694C22.889 10.8686 22.888 10.8677 22.8867 10.8665C22.8789 10.8725 22.8693 10.8787 22.8594 10.887ZM2.08496 11.0403C2.08233 11.0864 2.06708 11.1441 2.01953 11.1887C2.00022 11.2068 1.97878 11.2183 1.95801 11.2268H2.4707C2.34964 11.1666 2.23582 11.1066 2.13281 11.0432C2.1157 11.0327 2.09968 11.0207 2.08301 11.01C2.08348 11.0203 2.08552 11.0304 2.08496 11.0403Z" fill="#060017" stroke="#060017" stroke-width="0.3"/>
</svg>
