<svg width="20" height="20" viewBox="0 0 20 20" fill="none" xmlns="http://www.w3.org/2000/svg">
<path d="M9.5 0.649597C11.4106 0.649597 12.6854 1.8204 13.2021 2.34003C14.8449 2.41196 16.0428 3.21961 16.752 4.33221C17.4879 5.48932 17.75 6.9204 17.75 8.22479C17.75 8.87326 17.6783 9.49461 17.6055 10.091C17.5323 10.6901 17.4586 11.2622 17.4502 11.8273C17.4334 12.9495 17.6351 14.0409 18.6299 15.3195C18.7263 15.4416 18.768 15.6001 18.7422 15.7531C18.7163 15.9079 18.6251 16.0435 18.4922 16.1271L18.4912 16.1281L18.4893 16.1291C18.4881 16.1298 18.4864 16.1308 18.4844 16.132C18.4802 16.1345 18.4745 16.1383 18.4668 16.1428C18.4511 16.1519 18.4277 16.1651 18.3975 16.1818C18.3366 16.2154 18.2457 16.2638 18.127 16.3215C17.8895 16.4369 17.5376 16.592 17.0752 16.7541C16.184 17.0658 14.8449 17.4018 13.0625 17.6037C12.1533 18.6769 11.0951 19.3498 10 19.3498C8.9086 19.3497 7.85742 18.6846 6.9502 17.6183C5.17044 17.4178 3.85346 17.0689 2.98633 16.7531C2.53555 16.5891 2.1954 16.4303 1.9668 16.3117C1.85248 16.2524 1.7654 16.2029 1.70703 16.1682C1.67807 16.1509 1.6557 16.1377 1.64062 16.1281C1.63306 16.1233 1.6271 16.119 1.62305 16.1164C1.62138 16.1153 1.62019 16.1142 1.61914 16.1135L1.61719 16.1125L1.61523 16.1115C1.49342 16.0281 1.40972 15.8993 1.38379 15.7531L1.37598 15.6437C1.3788 15.5347 1.41431 15.428 1.47852 15.3381L1.47949 15.3361C2.45592 14.0093 2.64193 12.7937 2.60059 11.5803C2.5798 10.9706 2.49369 10.3673 2.41113 9.75604C2.32899 9.14785 2.25 8.53221 2.25 7.91229C2.25004 5.66815 2.95764 3.82935 4.24512 2.56757C5.53194 1.30647 7.35718 0.649644 9.5 0.649597ZM12.7637 7.18085C12.3303 7.92228 11.4425 9.00793 9.75684 9.53046C9.33651 9.6608 8.85112 9.76625 8.38477 9.88495C7.91241 10.0052 7.4517 10.1415 7.05371 10.3351C6.65229 10.5305 6.33059 10.7541 6.10742 11.0685C5.88568 11.3811 5.75006 11.7983 5.75 12.3996C5.75 14.7974 7.28913 16.4168 7.52051 16.6457L7.55273 16.6672L7.56152 16.674L7.56836 16.6818C7.57813 16.6916 7.58854 16.7045 7.58984 16.7062C7.59415 16.7119 7.59906 16.7188 7.60352 16.7248C7.60663 16.729 7.60966 16.7339 7.6123 16.7375C7.61426 16.7394 7.61679 16.742 7.61914 16.7443H7.61816L7.65332 16.7785L7.65527 16.7814C7.66598 16.7949 7.67314 16.8077 7.67773 16.8176C7.67861 16.8195 7.67893 16.8217 7.67969 16.8234C7.68808 16.834 7.69607 16.8443 7.70312 16.8547C8.50034 17.8236 9.32948 18.2501 10 18.2502C10.6874 18.2502 11.529 17.8118 12.3428 16.7971C12.3477 16.7893 12.3536 16.7802 12.3604 16.7707L12.3926 16.7228L12.3936 16.7209C12.4694 16.6227 14.2499 14.2834 14.25 11.3127C14.25 9.21263 13.3512 7.85192 12.7637 7.18085ZM9.5 1.75018C7.57799 1.75023 6.05173 2.31773 5.00488 3.34491C3.95878 4.37159 3.35063 5.89498 3.35059 7.91229C3.35059 8.43711 3.42472 8.99968 3.50684 9.60858C3.58852 10.2143 3.67724 10.8629 3.7002 11.5451C3.74181 12.7546 3.51995 14.0792 2.69629 15.4328C2.72772 15.4507 2.76108 15.4724 2.80566 15.4943C2.91377 15.5475 3.077 15.6173 3.36426 15.7219C3.95268 15.9366 4.79925 16.1699 5.90137 16.3566C5.30902 15.4624 4.65039 14.0955 4.65039 12.3996C4.65054 10.8068 5.54531 9.8532 6.57227 9.35272C7.07964 9.10548 7.62368 8.94301 8.12598 8.81464C8.63633 8.6842 9.08725 8.59209 9.44336 8.48163C10.5349 8.14302 11.1907 7.54217 11.5742 7.02948C11.7663 6.77266 11.891 6.53748 11.9668 6.36737C12.0046 6.2826 12.0298 6.2137 12.0459 6.16718C12.0539 6.14397 12.06 6.12596 12.0635 6.11444C12.0652 6.10868 12.0667 6.10431 12.0674 6.10175C12.0677 6.10054 12.0673 6.09925 12.0674 6.09882L12.0752 6.06952V6.03827L12.0879 6.02557V6.00018L12.125 5.96307V5.91522L12.1885 5.87616L12.1953 5.86639L12.2119 5.85077L12.2822 5.79803C12.3048 5.78267 12.3288 5.7676 12.3555 5.75409C12.3904 5.73491 12.4278 5.71881 12.4697 5.70624L12.4902 5.70038H12.5293C12.5768 5.69443 12.6234 5.69446 12.6709 5.70038H12.6895L12.7031 5.70233C12.8393 5.72801 12.9601 5.80527 13.043 5.91815C13.0448 5.91987 13.0468 5.92104 13.0479 5.92206L13.0664 5.94061L13.0674 5.94257C13.57 6.39269 15.3506 8.19891 15.3506 11.3127C15.3505 13.4887 14.5197 15.3148 13.9014 16.3898C15.1256 16.195 16.0592 15.9375 16.7129 15.7082C17.1173 15.5667 17.2802 15.4903 17.3965 15.4299C16.5784 14.1586 16.3336 12.9402 16.3506 11.8098C16.3609 11.1663 16.4365 10.5492 16.5088 9.95624C16.5814 9.36055 16.6504 8.78984 16.6504 8.22479C16.6504 7.06678 16.4011 5.82646 15.8232 4.91815C15.2505 4.01795 14.3894 3.41239 12.9756 3.41229H12.9727C12.8253 3.41008 12.6837 3.35145 12.5801 3.24237L12.3994 3.06171C11.8998 2.58265 10.8659 1.75018 9.5 1.75018ZM7.7998 11.05C8.2139 11.05 8.5498 11.3859 8.5498 11.8C8.5498 12.2141 8.2139 12.55 7.7998 12.55C7.38591 12.5498 7.0498 12.2139 7.0498 11.8C7.0498 11.386 7.38591 11.0502 7.7998 11.05ZM12.2002 11.05C12.6143 11.05 12.9502 11.3859 12.9502 11.8C12.9502 12.2141 12.6143 12.55 12.2002 12.55C11.7861 12.55 11.4502 12.2141 11.4502 11.8C11.4502 11.3859 11.7861 11.05 12.2002 11.05Z" fill="#1C1C1E" stroke="#1C1C1E" stroke-width="0.3"/>
</svg>
