<svg width="20" height="20" viewBox="0 0 20 20" fill="none" xmlns="http://www.w3.org/2000/svg">
<mask id="path-1-outside-1_23_7171" maskUnits="userSpaceOnUse" x="2.58691" y="-0.200012" width="15" height="20" fill="black">
<rect fill="white" x="2.58691" y="-0.200012" width="15" height="20"/>
<path d="M9.88754 0.799988C7.86879 0.799988 6.27348 1.39999 5.20004 2.49999C4.1266 3.59999 3.60004 5.1703 3.60004 7.03749C3.60004 7.81093 3.94379 9.30624 4.22504 10.1875C4.10785 10.2875 3.9891 10.3516 3.87504 10.525C3.68285 10.8187 3.54223 11.2297 3.60004 11.725C3.76879 13.1547 4.66567 13.6656 4.96254 13.8125C5.0766 14.4812 5.42192 15.3062 5.98754 16.15C6.59379 17.0547 7.43129 17.9234 8.45004 18.4125C8.46879 18.4219 8.48129 18.4406 8.50004 18.45C8.86723 18.8891 9.38598 19.2 10 19.2C10.6141 19.2 11.1329 18.8891 11.5 18.45C11.5188 18.4406 11.5313 18.4219 11.55 18.4125C12.5657 17.9219 13.386 17.0547 13.9875 16.15C14.5469 15.3078 14.886 14.4781 15 13.8125C15.2938 13.6734 16.2172 13.1766 16.3875 11.7375C16.4454 11.2406 16.2938 10.8203 16.1 10.525C15.9844 10.35 15.8672 10.2891 15.75 10.1875C16.0313 9.2953 16.4 7.91405 16.4 6.39999C16.4 5.70468 16.2579 4.75311 15.7875 3.92499C15.3454 3.14686 14.5454 2.50311 13.4125 2.42499C12.8985 1.6453 11.7875 0.799988 9.88754 0.799988ZM9.88754 1.59999C11.686 1.59999 12.5469 2.4328 12.85 2.98749C12.9188 3.11718 13.0532 3.19843 13.2 3.19999C14.1766 3.19999 14.7157 3.67186 15.0875 4.32499C15.4594 4.97811 15.6 5.82343 15.6 6.39999C15.6 7.8828 15.1969 9.34218 14.925 10.175C14.8704 10.3516 14.9422 10.5422 15.1 10.6375C15.1688 10.6797 15.3266 10.8047 15.4375 10.975C15.5485 11.1453 15.6235 11.35 15.5875 11.65C15.4344 12.9391 14.5375 13.1875 14.5375 13.1875C14.3875 13.2359 14.2797 13.3687 14.2625 13.525C14.2157 13.9672 13.8813 14.8641 13.325 15.7C12.7688 16.5359 12.0047 17.3328 11.1625 17.725C11.0969 17.7547 11.0407 17.8031 11 17.8625C10.7844 18.1844 10.4188 18.4 10 18.4C9.58129 18.4 9.21567 18.1844 9.00004 17.8625C8.95942 17.8031 8.90317 17.7547 8.83754 17.725C7.99223 17.3328 7.22348 16.5359 6.66254 15.7C6.1016 14.8641 5.75785 13.9656 5.71254 13.525C5.69379 13.3766 5.59223 13.25 5.45004 13.2C5.45004 13.2 4.5516 12.9297 4.40004 11.6375C4.3641 11.3359 4.44067 11.1281 4.55004 10.9625C4.65942 10.7969 4.80317 10.6828 4.87504 10.6375C5.0391 10.5406 5.11254 10.3422 5.05004 10.1625C4.80785 9.46405 4.40004 7.54999 4.40004 7.03749C4.40004 5.3203 4.87504 3.97186 5.77504 3.04999C6.67504 2.12811 8.02504 1.59999 9.88754 1.59999ZM12.925 4.64999C12.9125 4.65311 12.9 4.6578 12.8875 4.66249C12.8797 4.66561 12.8704 4.6703 12.8625 4.67499C12.8313 4.68436 12.8032 4.69686 12.775 4.71249C12.7672 4.71561 12.7579 4.7203 12.75 4.72499C12.75 4.72968 12.75 4.7328 12.75 4.73749C12.7375 4.7453 12.725 4.75311 12.7125 4.76249C12.7032 4.7703 12.6954 4.77811 12.6875 4.78749C12.6829 4.7953 12.6782 4.80468 12.675 4.81249C12.6563 4.83593 12.6391 4.86093 12.625 4.88749V4.89999C12.6204 4.9078 12.6157 4.91718 12.6125 4.92499C12.5797 4.98749 12.4219 5.26561 12 5.61249C11.5282 5.99999 10.7782 6.39999 9.60004 6.39999C8.85004 6.39999 7.90942 6.40624 7.10004 6.69999C6.69535 6.84686 6.31723 7.07343 6.03754 7.42499C5.75785 7.77655 5.60004 8.24374 5.60004 8.79999C5.59848 8.94374 5.67348 9.07811 5.79848 9.15155C5.92348 9.22343 6.0766 9.22343 6.2016 9.15155C6.3266 9.07811 6.4016 8.94374 6.40004 8.79999C6.40004 8.38905 6.50004 8.12968 6.66254 7.92499C6.82504 7.7203 7.06567 7.56249 7.37504 7.44999C7.99379 7.22655 8.86254 7.19999 9.60004 7.19999C10.9625 7.19999 11.9204 6.72499 12.5125 6.23749C12.711 6.07499 12.861 5.91249 12.9875 5.76249C13.375 6.38593 14 7.56249 14 8.79999C13.9985 8.94374 14.0735 9.07811 14.1985 9.15155C14.3235 9.22343 14.4766 9.22343 14.6016 9.15155C14.7266 9.07811 14.8016 8.94374 14.8 8.79999C14.8 6.81249 13.5969 5.18436 13.3875 4.91249C13.3875 4.9078 13.3875 4.90468 13.3875 4.89999C13.3782 4.88749 13.3547 4.84218 13.35 4.83749C13.3422 4.82811 13.3344 4.8203 13.325 4.81249L13.3125 4.79999C13.3094 4.79218 13.3047 4.7828 13.3 4.77499C13.2954 4.77499 13.2922 4.77499 13.2875 4.77499C13.2563 4.73905 13.2172 4.70936 13.175 4.68749C13.1704 4.6828 13.1672 4.67968 13.1625 4.67499C13.1547 4.6703 13.1454 4.66561 13.1375 4.66249C13.1329 4.66249 13.1297 4.66249 13.125 4.66249C13.1172 4.6578 13.1079 4.65311 13.1 4.64999C13.0922 4.64999 13.0829 4.64999 13.075 4.64999C13.0704 4.64999 13.0672 4.64999 13.0625 4.64999C13.0547 4.64999 13.0454 4.64999 13.0375 4.64999C13.0329 4.64999 13.0297 4.64999 13.025 4.64999C13.0172 4.64999 13.0079 4.64999 13 4.64999C12.9954 4.64999 12.9922 4.64999 12.9875 4.64999C12.9797 4.64999 12.9704 4.64999 12.9625 4.64999C12.95 4.64999 12.9375 4.64999 12.925 4.64999ZM7.80004 10.8C7.46879 10.8 7.20004 11.0687 7.20004 11.4C7.20004 11.7312 7.46879 12 7.80004 12C8.13129 12 8.40004 11.7312 8.40004 11.4C8.40004 11.0687 8.13129 10.8 7.80004 10.8ZM12.2 10.8C11.8688 10.8 11.6 11.0687 11.6 11.4C11.6 11.7312 11.8688 12 12.2 12C12.5313 12 12.8 11.7312 12.8 11.4C12.8 11.0687 12.5313 10.8 12.2 10.8Z"/>
</mask>
<path d="M9.88754 0.799988C7.86879 0.799988 6.27348 1.39999 5.20004 2.49999C4.1266 3.59999 3.60004 5.1703 3.60004 7.03749C3.60004 7.81093 3.94379 9.30624 4.22504 10.1875C4.10785 10.2875 3.9891 10.3516 3.87504 10.525C3.68285 10.8187 3.54223 11.2297 3.60004 11.725C3.76879 13.1547 4.66567 13.6656 4.96254 13.8125C5.0766 14.4812 5.42192 15.3062 5.98754 16.15C6.59379 17.0547 7.43129 17.9234 8.45004 18.4125C8.46879 18.4219 8.48129 18.4406 8.50004 18.45C8.86723 18.8891 9.38598 19.2 10 19.2C10.6141 19.2 11.1329 18.8891 11.5 18.45C11.5188 18.4406 11.5313 18.4219 11.55 18.4125C12.5657 17.9219 13.386 17.0547 13.9875 16.15C14.5469 15.3078 14.886 14.4781 15 13.8125C15.2938 13.6734 16.2172 13.1766 16.3875 11.7375C16.4454 11.2406 16.2938 10.8203 16.1 10.525C15.9844 10.35 15.8672 10.2891 15.75 10.1875C16.0313 9.2953 16.4 7.91405 16.4 6.39999C16.4 5.70468 16.2579 4.75311 15.7875 3.92499C15.3454 3.14686 14.5454 2.50311 13.4125 2.42499C12.8985 1.6453 11.7875 0.799988 9.88754 0.799988ZM9.88754 1.59999C11.686 1.59999 12.5469 2.4328 12.85 2.98749C12.9188 3.11718 13.0532 3.19843 13.2 3.19999C14.1766 3.19999 14.7157 3.67186 15.0875 4.32499C15.4594 4.97811 15.6 5.82343 15.6 6.39999C15.6 7.8828 15.1969 9.34218 14.925 10.175C14.8704 10.3516 14.9422 10.5422 15.1 10.6375C15.1688 10.6797 15.3266 10.8047 15.4375 10.975C15.5485 11.1453 15.6235 11.35 15.5875 11.65C15.4344 12.9391 14.5375 13.1875 14.5375 13.1875C14.3875 13.2359 14.2797 13.3687 14.2625 13.525C14.2157 13.9672 13.8813 14.8641 13.325 15.7C12.7688 16.5359 12.0047 17.3328 11.1625 17.725C11.0969 17.7547 11.0407 17.8031 11 17.8625C10.7844 18.1844 10.4188 18.4 10 18.4C9.58129 18.4 9.21567 18.1844 9.00004 17.8625C8.95942 17.8031 8.90317 17.7547 8.83754 17.725C7.99223 17.3328 7.22348 16.5359 6.66254 15.7C6.1016 14.8641 5.75785 13.9656 5.71254 13.525C5.69379 13.3766 5.59223 13.25 5.45004 13.2C5.45004 13.2 4.5516 12.9297 4.40004 11.6375C4.3641 11.3359 4.44067 11.1281 4.55004 10.9625C4.65942 10.7969 4.80317 10.6828 4.87504 10.6375C5.0391 10.5406 5.11254 10.3422 5.05004 10.1625C4.80785 9.46405 4.40004 7.54999 4.40004 7.03749C4.40004 5.3203 4.87504 3.97186 5.77504 3.04999C6.67504 2.12811 8.02504 1.59999 9.88754 1.59999ZM12.925 4.64999C12.9125 4.65311 12.9 4.6578 12.8875 4.66249C12.8797 4.66561 12.8704 4.6703 12.8625 4.67499C12.8313 4.68436 12.8032 4.69686 12.775 4.71249C12.7672 4.71561 12.7579 4.7203 12.75 4.72499C12.75 4.72968 12.75 4.7328 12.75 4.73749C12.7375 4.7453 12.725 4.75311 12.7125 4.76249C12.7032 4.7703 12.6954 4.77811 12.6875 4.78749C12.6829 4.7953 12.6782 4.80468 12.675 4.81249C12.6563 4.83593 12.6391 4.86093 12.625 4.88749V4.89999C12.6204 4.9078 12.6157 4.91718 12.6125 4.92499C12.5797 4.98749 12.4219 5.26561 12 5.61249C11.5282 5.99999 10.7782 6.39999 9.60004 6.39999C8.85004 6.39999 7.90942 6.40624 7.10004 6.69999C6.69535 6.84686 6.31723 7.07343 6.03754 7.42499C5.75785 7.77655 5.60004 8.24374 5.60004 8.79999C5.59848 8.94374 5.67348 9.07811 5.79848 9.15155C5.92348 9.22343 6.0766 9.22343 6.2016 9.15155C6.3266 9.07811 6.4016 8.94374 6.40004 8.79999C6.40004 8.38905 6.50004 8.12968 6.66254 7.92499C6.82504 7.7203 7.06567 7.56249 7.37504 7.44999C7.99379 7.22655 8.86254 7.19999 9.60004 7.19999C10.9625 7.19999 11.9204 6.72499 12.5125 6.23749C12.711 6.07499 12.861 5.91249 12.9875 5.76249C13.375 6.38593 14 7.56249 14 8.79999C13.9985 8.94374 14.0735 9.07811 14.1985 9.15155C14.3235 9.22343 14.4766 9.22343 14.6016 9.15155C14.7266 9.07811 14.8016 8.94374 14.8 8.79999C14.8 6.81249 13.5969 5.18436 13.3875 4.91249C13.3875 4.9078 13.3875 4.90468 13.3875 4.89999C13.3782 4.88749 13.3547 4.84218 13.35 4.83749C13.3422 4.82811 13.3344 4.8203 13.325 4.81249L13.3125 4.79999C13.3094 4.79218 13.3047 4.7828 13.3 4.77499C13.2954 4.77499 13.2922 4.77499 13.2875 4.77499C13.2563 4.73905 13.2172 4.70936 13.175 4.68749C13.1704 4.6828 13.1672 4.67968 13.1625 4.67499C13.1547 4.6703 13.1454 4.66561 13.1375 4.66249C13.1329 4.66249 13.1297 4.66249 13.125 4.66249C13.1172 4.6578 13.1079 4.65311 13.1 4.64999C13.0922 4.64999 13.0829 4.64999 13.075 4.64999C13.0704 4.64999 13.0672 4.64999 13.0625 4.64999C13.0547 4.64999 13.0454 4.64999 13.0375 4.64999C13.0329 4.64999 13.0297 4.64999 13.025 4.64999C13.0172 4.64999 13.0079 4.64999 13 4.64999C12.9954 4.64999 12.9922 4.64999 12.9875 4.64999C12.9797 4.64999 12.9704 4.64999 12.9625 4.64999C12.95 4.64999 12.9375 4.64999 12.925 4.64999ZM7.80004 10.8C7.46879 10.8 7.20004 11.0687 7.20004 11.4C7.20004 11.7312 7.46879 12 7.80004 12C8.13129 12 8.40004 11.7312 8.40004 11.4C8.40004 11.0687 8.13129 10.8 7.80004 10.8ZM12.2 10.8C11.8688 10.8 11.6 11.0687 11.6 11.4C11.6 11.7312 11.8688 12 12.2 12C12.5313 12 12.8 11.7312 12.8 11.4C12.8 11.0687 12.5313 10.8 12.2 10.8Z" fill="black"/>
<path d="M9.88754 0.799988C7.86879 0.799988 6.27348 1.39999 5.20004 2.49999C4.1266 3.59999 3.60004 5.1703 3.60004 7.03749C3.60004 7.81093 3.94379 9.30624 4.22504 10.1875C4.10785 10.2875 3.9891 10.3516 3.87504 10.525C3.68285 10.8187 3.54223 11.2297 3.60004 11.725C3.76879 13.1547 4.66567 13.6656 4.96254 13.8125C5.0766 14.4812 5.42192 15.3062 5.98754 16.15C6.59379 17.0547 7.43129 17.9234 8.45004 18.4125C8.46879 18.4219 8.48129 18.4406 8.50004 18.45C8.86723 18.8891 9.38598 19.2 10 19.2C10.6141 19.2 11.1329 18.8891 11.5 18.45C11.5188 18.4406 11.5313 18.4219 11.55 18.4125C12.5657 17.9219 13.386 17.0547 13.9875 16.15C14.5469 15.3078 14.886 14.4781 15 13.8125C15.2938 13.6734 16.2172 13.1766 16.3875 11.7375C16.4454 11.2406 16.2938 10.8203 16.1 10.525C15.9844 10.35 15.8672 10.2891 15.75 10.1875C16.0313 9.2953 16.4 7.91405 16.4 6.39999C16.4 5.70468 16.2579 4.75311 15.7875 3.92499C15.3454 3.14686 14.5454 2.50311 13.4125 2.42499C12.8985 1.6453 11.7875 0.799988 9.88754 0.799988ZM9.88754 1.59999C11.686 1.59999 12.5469 2.4328 12.85 2.98749C12.9188 3.11718 13.0532 3.19843 13.2 3.19999C14.1766 3.19999 14.7157 3.67186 15.0875 4.32499C15.4594 4.97811 15.6 5.82343 15.6 6.39999C15.6 7.8828 15.1969 9.34218 14.925 10.175C14.8704 10.3516 14.9422 10.5422 15.1 10.6375C15.1688 10.6797 15.3266 10.8047 15.4375 10.975C15.5485 11.1453 15.6235 11.35 15.5875 11.65C15.4344 12.9391 14.5375 13.1875 14.5375 13.1875C14.3875 13.2359 14.2797 13.3687 14.2625 13.525C14.2157 13.9672 13.8813 14.8641 13.325 15.7C12.7688 16.5359 12.0047 17.3328 11.1625 17.725C11.0969 17.7547 11.0407 17.8031 11 17.8625C10.7844 18.1844 10.4188 18.4 10 18.4C9.58129 18.4 9.21567 18.1844 9.00004 17.8625C8.95942 17.8031 8.90317 17.7547 8.83754 17.725C7.99223 17.3328 7.22348 16.5359 6.66254 15.7C6.1016 14.8641 5.75785 13.9656 5.71254 13.525C5.69379 13.3766 5.59223 13.25 5.45004 13.2C5.45004 13.2 4.5516 12.9297 4.40004 11.6375C4.3641 11.3359 4.44067 11.1281 4.55004 10.9625C4.65942 10.7969 4.80317 10.6828 4.87504 10.6375C5.0391 10.5406 5.11254 10.3422 5.05004 10.1625C4.80785 9.46405 4.40004 7.54999 4.40004 7.03749C4.40004 5.3203 4.87504 3.97186 5.77504 3.04999C6.67504 2.12811 8.02504 1.59999 9.88754 1.59999ZM12.925 4.64999C12.9125 4.65311 12.9 4.6578 12.8875 4.66249C12.8797 4.66561 12.8704 4.6703 12.8625 4.67499C12.8313 4.68436 12.8032 4.69686 12.775 4.71249C12.7672 4.71561 12.7579 4.7203 12.75 4.72499C12.75 4.72968 12.75 4.7328 12.75 4.73749C12.7375 4.7453 12.725 4.75311 12.7125 4.76249C12.7032 4.7703 12.6954 4.77811 12.6875 4.78749C12.6829 4.7953 12.6782 4.80468 12.675 4.81249C12.6563 4.83593 12.6391 4.86093 12.625 4.88749V4.89999C12.6204 4.9078 12.6157 4.91718 12.6125 4.92499C12.5797 4.98749 12.4219 5.26561 12 5.61249C11.5282 5.99999 10.7782 6.39999 9.60004 6.39999C8.85004 6.39999 7.90942 6.40624 7.10004 6.69999C6.69535 6.84686 6.31723 7.07343 6.03754 7.42499C5.75785 7.77655 5.60004 8.24374 5.60004 8.79999C5.59848 8.94374 5.67348 9.07811 5.79848 9.15155C5.92348 9.22343 6.0766 9.22343 6.2016 9.15155C6.3266 9.07811 6.4016 8.94374 6.40004 8.79999C6.40004 8.38905 6.50004 8.12968 6.66254 7.92499C6.82504 7.7203 7.06567 7.56249 7.37504 7.44999C7.99379 7.22655 8.86254 7.19999 9.60004 7.19999C10.9625 7.19999 11.9204 6.72499 12.5125 6.23749C12.711 6.07499 12.861 5.91249 12.9875 5.76249C13.375 6.38593 14 7.56249 14 8.79999C13.9985 8.94374 14.0735 9.07811 14.1985 9.15155C14.3235 9.22343 14.4766 9.22343 14.6016 9.15155C14.7266 9.07811 14.8016 8.94374 14.8 8.79999C14.8 6.81249 13.5969 5.18436 13.3875 4.91249C13.3875 4.9078 13.3875 4.90468 13.3875 4.89999C13.3782 4.88749 13.3547 4.84218 13.35 4.83749C13.3422 4.82811 13.3344 4.8203 13.325 4.81249L13.3125 4.79999C13.3094 4.79218 13.3047 4.7828 13.3 4.77499C13.2954 4.77499 13.2922 4.77499 13.2875 4.77499C13.2563 4.73905 13.2172 4.70936 13.175 4.68749C13.1704 4.6828 13.1672 4.67968 13.1625 4.67499C13.1547 4.6703 13.1454 4.66561 13.1375 4.66249C13.1329 4.66249 13.1297 4.66249 13.125 4.66249C13.1172 4.6578 13.1079 4.65311 13.1 4.64999C13.0922 4.64999 13.0829 4.64999 13.075 4.64999C13.0704 4.64999 13.0672 4.64999 13.0625 4.64999C13.0547 4.64999 13.0454 4.64999 13.0375 4.64999C13.0329 4.64999 13.0297 4.64999 13.025 4.64999C13.0172 4.64999 13.0079 4.64999 13 4.64999C12.9954 4.64999 12.9922 4.64999 12.9875 4.64999C12.9797 4.64999 12.9704 4.64999 12.9625 4.64999C12.95 4.64999 12.9375 4.64999 12.925 4.64999ZM7.80004 10.8C7.46879 10.8 7.20004 11.0687 7.20004 11.4C7.20004 11.7312 7.46879 12 7.80004 12C8.13129 12 8.40004 11.7312 8.40004 11.4C8.40004 11.0687 8.13129 10.8 7.80004 10.8ZM12.2 10.8C11.8688 10.8 11.6 11.0687 11.6 11.4C11.6 11.7312 11.8688 12 12.2 12C12.5313 12 12.8 11.7312 12.8 11.4C12.8 11.0687 12.5313 10.8 12.2 10.8Z" stroke="white" stroke-width="0.6" mask="url(#path-1-outside-1_23_7171)"/>
</svg>
