<svg width="20" height="20" viewBox="0 0 20 20" fill="none" xmlns="http://www.w3.org/2000/svg">
<path d="M14.3141 2V3.3932H16.5444L14.6521 5.22177C13.9452 4.73469 13.0835 4.4381 12.1514 4.4381C9.76627 4.4381 7.82603 6.31293 7.82603 8.61769C7.82603 10.0531 8.59621 11.3782 9.8423 12.1442C9.93382 11.9116 9.98874 11.6585 9.98874 11.4041C9.98874 10.9088 9.84512 10.4258 9.65081 10.0109H9.66208C9.40723 9.59592 9.26783 9.11837 9.26783 8.61769C9.26783 7.08163 10.5618 5.83129 12.1514 5.83129C13.7411 5.83129 15.035 7.08163 15.035 8.61769C15.035 9.90748 14.1269 10.9891 12.8723 11.3061C12.8737 11.3388 12.8723 11.3714 12.8723 11.4041C12.8723 11.8707 12.7935 12.3265 12.6583 12.7646C14.8055 12.5211 16.4768 10.7565 16.4768 8.61769C16.4768 7.71701 16.1699 6.88435 15.6658 6.20136L17.5582 4.37279V6.52789H19V2H14.3141ZM7.30788 7.25714C5.16489 7.5034 3.50063 9.26803 3.50063 11.4041C3.50063 12.302 3.79912 13.1388 4.30038 13.8204L3.12891 14.9524L2.0025 13.8966L1 14.898L2.11514 15.9429L1 17.0095L2.02503 18L3.15144 16.9116L4.27785 17.9673L5.28035 16.966L4.16521 15.9211L5.32541 14.8C6.03223 15.2871 6.89393 15.5837 7.82603 15.5837C10.2112 15.5837 12.1514 13.7088 12.1514 11.4041C12.1514 9.97007 11.3798 8.65442 10.1352 7.88844C10.0422 8.12109 9.98874 8.36463 9.98874 8.61769C9.98874 8.97959 10.3238 10.0639 10.5181 10.381L10.5069 10.4027C10.635 10.717 10.7096 11.0531 10.7096 11.4041C10.7096 12.9401 9.41568 14.1905 7.82603 14.1905C6.23639 14.1905 4.94243 12.9401 4.94243 11.4041C4.94243 10.1061 5.86045 9.01361 7.10513 8.70476C7.10372 8.67347 7.10513 8.64762 7.10513 8.61769C7.10513 8.15238 7.17272 7.69524 7.30788 7.25714Z" fill="#1C1C1E"/>
</svg>
